<svg xmlns="http://www.w3.org/2000/svg" xmlns:xlink="http://www.w3.org/1999/xlink" width="105.105mm" height="105.105mm" viewBox="4037.5 3039.5 413.8 413.8"><title></title><style type="text/css">
*[layerid="1"] {stroke:#000000;fill:#000000;}
*[layerid="2"] {stroke:#000000;fill:#000000;}
*[layerid="3"] {stroke:#000000;fill:#000000;}
*[layerid="4"] {stroke:#000000;fill:#000000;}
*[layerid="5"] {stroke:#000000;fill:#000000;}
*[layerid="6"] {stroke:#000000;fill:#000000;}
*[layerid="7"] {stroke:#000000;fill:#000000;}
*[layerid="8"] {stroke:#000000;fill:#000000;}
*[layerid="9"] {stroke:#000000;fill:#000000;}
*[layerid="10"] {stroke:#000000;fill:#000000;}
*[layerid="11"] {stroke:#000000;fill:#000000;}
*[layerid="12"] {stroke:#000000;fill:#000000;}
*[layerid="13"] {stroke:#000000;fill:#000000;}
*[layerid="14"] {stroke:#000000;fill:#000000;}
*[layerid="15"] {stroke:#000000;fill:#000000;}
*[layerid="19"] {stroke:#000000;fill:#000000;}
*[layerid="21"] {stroke:#000000;fill:#000000;}
*[layerid="22"] {stroke:#000000;fill:#000000;}
*[layerid="23"] {stroke:#000000;fill:#000000;}
*[layerid="24"] {stroke:#000000;fill:#000000;}
*[layerid="25"] {stroke:#000000;fill:#000000;}
*[layerid="26"] {stroke:#000000;fill:#000000;}
*[layerid="27"] {stroke:#000000;fill:#000000;}
*[layerid="28"] {stroke:#000000;fill:#000000;}
*[layerid="29"] {stroke:#000000;fill:#000000;}
*[layerid="30"] {stroke:#000000;fill:#000000;}
*[layerid="31"] {stroke:#000000;fill:#000000;}
*[layerid="32"] {stroke:#000000;fill:#000000;}
*[layerid="33"] {stroke:#000000;fill:#000000;}
*[layerid="34"] {stroke:#000000;fill:#000000;}
*[layerid="35"] {stroke:#000000;fill:#000000;}
*[layerid="36"] {stroke:#000000;fill:#000000;}
*[layerid="37"] {stroke:#000000;fill:#000000;}
*[layerid="38"] {stroke:#000000;fill:#000000;}
*[layerid="39"] {stroke:#000000;fill:#000000;}
*[layerid="40"] {stroke:#000000;fill:#000000;}
*[layerid="41"] {stroke:#000000;fill:#000000;}
*[layerid="42"] {stroke:#000000;fill:#000000;}
*[layerid="43"] {stroke:#000000;fill:#000000;}
*[layerid="44"] {stroke:#000000;fill:#000000;}
*[layerid="45"] {stroke:#000000;fill:#000000;}
*[layerid="46"] {stroke:#000000;fill:#000000;}
*[layerid="47"] {stroke:#000000;fill:#000000;}
*[layerid="48"] {stroke:#000000;fill:#000000;}
*[layerid="49"] {stroke:#000000;fill:#000000;}
*[layerid="50"] {stroke:#000000;fill:#000000;}
*[layerid="51"] {stroke:#000000;fill:#000000;}
*[layerid="52"] {stroke:#000000;fill:#000000;}
*[layerid="99"] {stroke:#000000;fill:#000000;}
*[layerid="100"] {stroke:#000000;fill:#000000;}
*[layerid="101"] {stroke:#000000;fill:#000000;}
*[layerid="Hole"] {stroke:#000000;fill:#000000;}
*[layerid="DRCError"] {stroke:#000000;fill:#000000;}
*[fill="none"] {fill: none;}
*[stroke="none"] {stroke: none;}
path, polyline, polygon, line {stroke-linecap:round;}
g[c_partid="part_pad"][layerid="1"] ellipse:not([c_etype="pad_outer"]) {fill:#000000;}
g[c_partid="part_pad"][layerid="1"] polygon:not([c_etype="pad_outer"]) {fill:#000000;}
g[c_partid="part_pad"][layerid="1"] polyline:not([c_etype="pad_outer"]) {stroke:#000000;}
g[c_partid="part_pad"][layerid="2"] ellipse:not([c_etype="pad_outer"]) {fill:#000000;}
g[c_partid="part_pad"][layerid="2"] polygon:not([c_etype="pad_outer"]) {fill:#000000;}
g[c_partid="part_pad"][layerid="2"] polyline:not([c_etype="pad_outer"]) {stroke:#000000;}
g[c_partid="part_pad"][layerid="11"] ellipse:not([c_etype="pad_outer"]) {fill:#000000;}
g[c_partid="part_pad"][layerid="11"] polygon:not([c_etype="pad_outer"]) {fill:#000000;}
g[c_partid="part_pad"][layerid="11"] polyline:not([c_etype="pad_outer"]) {stroke:#000000;}
g[c_partid="part_pad"][layerid="11"] circle {fill:#FFFFFF;}
g[c_partid="part_pad"][layerid="11"] > polyline:nth-of-type(2) {stroke:#FFFFFF;}
g[c_partid="part_pad"][layerid="11"][c_shape="ELLIPSE"]  polyline:nth-last-of-type(1) {stroke:#FFFFFF;}
g[c_partid="part_pad"][layerid="11"][c_shape="RECT"]  polyline:nth-last-of-type(1) {stroke:#FFFFFF;}
g[c_partid="part_pad"][layerid="11"][c_shape="POLYGON"]  polyline:nth-last-of-type(1) {stroke:#FFFFFF;}
g[c_partid="part_via"] > * + circle, #gCurParts g[c_partid="part_via"] > * + circle {fill:#FFFFFF;}
g[c_partid="part_pad"] > polygon[c_etype="pad_outer"], #gCurParts g[c_partid="part_pad"] > polygon[c_etype="pad_outer"] {stroke-linejoin: round;stroke-miterlimit: 100;}
g[c_partid="part_hole"] > circle {fill: #FFFFFF;}path, polyline, polygon {stroke-linejoin:round;}
rect, circle, ellipse, polyline, line, polygon, path {shape-rendering:crispEdges;}
</style>
<rect x="4037.5" y="3039.5" width="413.8" height="413.8" fill="#FFFFFF" stroke="none"/><path d="M 4048.979 3442.283 L 4048.82593 3442.25255 4048.69616 3442.16584 4048.60945 3442.03607 4048.579 3441.883 4048.579 3051.023 4048.60945 3050.86993 4048.69616 3050.74016 4048.82593 3050.65345 4048.979 3050.623 4439.839 3050.623 4439.99207 3050.65345 4440.12184 3050.74016 4440.20855 3050.86993 4440.239 3051.023 4440.239 3441.883 4440.20855 3442.03607 4440.12184 3442.16584 4439.99207 3442.25255 4439.839 3442.283 4048.979 3442.283 Z M 4216.77233 3290.6877 L 4217.35391 3290.74159 4217.93771 3290.7236 4218.51486 3290.63401 4219.07664 3290.47417 4219.61451 3290.24651 4220.12033 3289.95448 4220.58643 3289.6025 4221.00574 3289.1959 4221.37191 3288.74087 4221.67938 3288.24428 4221.9235 3287.71367 4222.10056 3287.15709 4222.20788 3286.58296 4222.24384 3286 4222.20788 3285.41704 4222.10056 3284.84291 4221.9235 3284.28633 4221.67938 3283.75572 4221.37191 3283.25913 4221.00574 3282.8041 4220.58643 3282.3975 4220.12033 3282.04552 4219.61451 3281.75349 4219.07664 3281.52583 4218.58074 3281.38473 4218.42995 3281.30376 4218.32682 3281.16718 4218.2902 3281 4218.32682 3280.83282 4218.42995 3280.69624 4218.58074 3280.61527 4219.07664 3280.47417 4219.61451 3280.24651 4220.12033 3279.95448 4220.58643 3279.6025 4221.00574 3279.1959 4221.37191 3278.74087 4221.67938 3278.24428 4221.9235 3277.71367 4222.10056 3277.15709 4222.20788 3276.58296 4222.24384 3276 4222.20788 3275.41704 4222.10056 3274.84291 4221.9235 3274.28633 4221.67938 3273.75572 4221.37191 3273.25913 4221.00574 3272.8041 4220.58643 3272.3975 4220.12033 3272.04552 4219.61451 3271.75349 4219.07664 3271.52583 4218.58074 3271.38473 4218.42995 3271.30376 4218.32682 3271.16718 4218.2902 3271 4218.32682 3270.83282 4218.42995 3270.69624 4218.58074 3270.61527 4219.07664 3270.47417 4219.61451 3270.24651 4220.12033 3269.95448 4220.58643 3269.6025 4221.00574 3269.1959 4221.37191 3268.74087 4221.67938 3268.24428 4221.9235 3267.71367 4222.10056 3267.15709 4222.20788 3266.58296 4222.24384 3266 4222.20788 3265.41704 4222.10056 3264.84291 4221.9235 3264.28633 4221.67938 3263.75572 4221.37191 3263.25913 4221.00574 3262.8041 4220.58643 3262.3975 4220.12033 3262.04552 4219.61451 3261.75349 4219.07664 3261.52583 4218.58074 3261.38473 4218.42995 3261.30376 4218.32682 3261.16718 4218.2902 3261 4218.32682 3260.83282 4218.42995 3260.69624 4218.58074 3260.61527 4219.07664 3260.47417 4219.61451 3260.24651 4220.12033 3259.95448 4220.58643 3259.6025 4221.00574 3259.1959 4221.37191 3258.74087 4221.67938 3258.24428 4221.9235 3257.71367 4222.10056 3257.15709 4222.20788 3256.58296 4222.24384 3256 4222.20788 3255.41704 4222.10056 3254.84291 4221.9235 3254.28633 4221.67938 3253.75572 4221.37191 3253.25913 4221.00574 3252.8041 4220.58643 3252.3975 4220.12033 3252.04552 4219.61451 3251.75349 4219.07664 3251.52583 4218.58074 3251.38473 4218.42995 3251.30376 4218.32682 3251.16718 4218.2902 3251 4218.32682 3250.83282 4218.42995 3250.69624 4218.58074 3250.61527 4219.07664 3250.47417 4219.61451 3250.24651 4220.12033 3249.95448 4220.58643 3249.6025 4221.00574 3249.1959 4221.37191 3248.74087 4221.67938 3248.24428 4221.9235 3247.71367 4222.10056 3247.15709 4222.20788 3246.58296 4222.24384 3246 4222.20788 3245.41704 4222.10056 3244.84291 4221.9235 3244.28633 4221.67938 3243.75572 4221.37191 3243.25913 4221.00574 3242.8041 4220.58643 3242.3975 4220.12033 3242.04552 4219.61451 3241.75349 4219.07664 3241.52583 4218.58074 3241.38473 4218.42995 3241.30376 4218.32682 3241.16718 4218.2902 3241 4218.32682 3240.83282 4218.42995 3240.69624 4218.58074 3240.61527 4219.07664 3240.47417 4219.61451 3240.24651 4220.12033 3239.95448 4220.58643 3239.6025 4221.00574 3239.1959 4221.37191 3238.74087 4221.67938 3238.24428 4221.9235 3237.71367 4222.10056 3237.15709 4222.20788 3236.58296 4222.24384 3236 4222.20788 3235.41704 4222.10056 3234.84291 4221.9235 3234.28633 4221.67938 3233.75572 4221.37191 3233.25913 4221.00574 3232.8041 4220.58643 3232.3975 4220.12033 3232.04552 4219.61451 3231.75349 4219.07664 3231.52583 4218.58074 3231.38473 4218.42995 3231.30376 4218.32682 3231.16718 4218.2902 3231 4218.32682 3230.83282 4218.42995 3230.69624 4218.58074 3230.61527 4219.07664 3230.47417 4219.61451 3230.24651 4220.12033 3229.95448 4220.58643 3229.6025 4221.00574 3229.1959 4221.37191 3228.74087 4221.67938 3228.24428 4221.9235 3227.71367 4222.10056 3227.15709 4222.20788 3226.58296 4222.24384 3226 4222.20788 3225.41704 4222.10056 3224.84291 4221.9235 3224.28633 4221.67938 3223.75572 4221.37191 3223.25913 4221.00574 3222.8041 4220.58643 3222.3975 4220.12033 3222.04552 4219.61451 3221.75349 4219.07664 3221.52583 4218.58074 3221.38473 4218.42995 3221.30376 4218.32682 3221.16718 4218.2902 3221 4218.32682 3220.83282 4218.42995 3220.69624 4218.58074 3220.61527 4219.07664 3220.47417 4219.61451 3220.24651 4220.12033 3219.95448 4220.58643 3219.6025 4221.00574 3219.1959 4221.37191 3218.74087 4221.67938 3218.24428 4221.9235 3217.71367 4222.10056 3217.15709 4222.20788 3216.58296 4222.24384 3216 4222.20788 3215.41704 4222.10056 3214.84291 4221.9235 3214.28633 4221.67938 3213.75572 4221.37191 3213.25913 4221.00574 3212.8041 4220.58643 3212.3975 4220.12033 3212.04552 4219.61451 3211.75349 4219.07664 3211.52583 4218.58074 3211.38473 4218.42995 3211.30376 4218.32682 3211.16718 4218.2902 3211 4218.32682 3210.83282 4218.42995 3210.69624 4218.58074 3210.61527 4219.07664 3210.47417 4219.61451 3210.24651 4220.12033 3209.95448 4220.58643 3209.6025 4221.00574 3209.1959 4221.37191 3208.74087 4221.67938 3208.24428 4221.9235 3207.71367 4222.10056 3207.15709 4222.20788 3206.58296 4222.24384 3206 4222.20788 3205.41704 4222.10056 3204.84291 4221.9235 3204.28633 4221.67938 3203.75572 4221.37191 3203.25913 4221.00574 3202.8041 4220.58643 3202.3975 4220.12033 3202.04552 4219.61451 3201.75349 4219.07664 3201.52583 4218.58074 3201.38473 4218.42995 3201.30376 4218.32682 3201.16718 4218.2902 3201 4218.32682 3200.83282 4218.42995 3200.69624 4218.58074 3200.61527 4219.07664 3200.47417 4219.61451 3200.24651 4220.12033 3199.95448 4220.58643 3199.6025 4221.00574 3199.1959 4221.37191 3198.74087 4221.67938 3198.24428 4221.9235 3197.71367 4222.10056 3197.15709 4222.20788 3196.58296 4222.24384 3196 4222.20788 3195.41704 4222.10056 3194.84291 4221.9235 3194.28633 4221.67938 3193.75572 4221.37191 3193.25913 4221.00574 3192.8041 4220.58643 3192.3975 4220.12033 3192.04552 4219.61451 3191.75349 4219.07664 3191.52583 4218.58074 3191.38473 4218.42995 3191.30376 4218.32682 3191.16718 4218.2902 3191 4218.32682 3190.83282 4218.42995 3190.69624 4218.58074 3190.61527 4219.07664 3190.47417 4219.61451 3190.24651 4220.12033 3189.95448 4220.58643 3189.6025 4221.00574 3189.1959 4221.37191 3188.74087 4221.67938 3188.24428 4221.9235 3187.71367 4222.10056 3187.15709 4222.20788 3186.58296 4222.24384 3186 4222.20788 3185.41704 4222.10056 3184.84291 4221.9235 3184.28633 4221.67938 3183.75572 4221.37191 3183.25913 4221.00574 3182.8041 4220.58643 3182.3975 4220.12033 3182.04552 4219.61451 3181.75349 4219.07664 3181.52583 4218.58074 3181.38473 4218.42995 3181.30376 4218.32682 3181.16718 4218.2902 3181 4218.32682 3180.83282 4218.42995 3180.69624 4218.58074 3180.61527 4219.07664 3180.47417 4219.61451 3180.24651 4220.12033 3179.95448 4220.58643 3179.6025 4221.00574 3179.1959 4221.37191 3178.74087 4221.67938 3178.24428 4221.9235 3177.71367 4222.10056 3177.15709 4222.20788 3176.58296 4222.24384 3176 4222.20788 3175.41704 4222.10056 3174.84291 4221.9235 3174.28633 4221.67938 3173.75572 4221.37191 3173.25913 4221.00574 3172.8041 4220.58643 3172.3975 4220.12033 3172.04552 4219.61451 3171.75349 4219.07664 3171.52583 4218.58074 3171.38473 4218.42995 3171.30376 4218.32682 3171.16718 4218.2902 3171 4218.32682 3170.83282 4218.42995 3170.69624 4218.58074 3170.61527 4219.07664 3170.47417 4219.61451 3170.24651 4220.12033 3169.95448 4220.58643 3169.6025 4221.00574 3169.1959 4221.37191 3168.74087 4221.67938 3168.24428 4221.9235 3167.71367 4222.10056 3167.15709 4222.20788 3166.58296 4222.24384 3166 4222.20788 3165.41704 4222.10056 3164.84291 4221.9235 3164.28633 4221.67938 3163.75572 4221.37191 3163.25913 4221.00574 3162.8041 4220.58643 3162.3975 4220.12033 3162.04552 4219.61451 3161.75349 4219.07664 3161.52583 4218.58074 3161.38473 4218.42995 3161.30376 4218.32682 3161.16718 4218.2902 3161 4218.32682 3160.83282 4218.42995 3160.69624 4218.58074 3160.61527 4219.07664 3160.47417 4219.61451 3160.24651 4220.12033 3159.95448 4220.58643 3159.6025 4221.00574 3159.1959 4221.37191 3158.74087 4221.67938 3158.24428 4221.9235 3157.71367 4222.10056 3157.15709 4222.20788 3156.58296 4222.24384 3156 4222.20788 3155.41704 4222.10056 3154.84291 4221.9235 3154.28633 4221.67938 3153.75572 4221.37191 3153.25913 4221.00574 3152.8041 4220.58643 3152.3975 4220.12033 3152.04552 4219.61451 3151.75349 4219.07664 3151.52583 4218.58074 3151.38473 4218.42995 3151.30376 4218.32682 3151.16718 4218.2902 3151 4218.32682 3150.83282 4218.42995 3150.69624 4218.58074 3150.61527 4219.07664 3150.47417 4219.61451 3150.24651 4220.12033 3149.95448 4220.58643 3149.6025 4221.00574 3149.1959 4221.37191 3148.74087 4221.67938 3148.24428 4221.9235 3147.71367 4222.10056 3147.15709 4222.20788 3146.58296 4222.24384 3146 4222.20788 3145.41704 4222.10056 3144.84291 4221.9235 3144.28633 4221.67938 3143.75572 4221.37191 3143.25913 4221.00574 3142.8041 4220.58643 3142.3975 4220.12033 3142.04552 4219.61451 3141.75349 4219.07664 3141.52583 4218.58074 3141.38473 4218.42995 3141.30376 4218.32682 3141.16718 4218.2902 3141 4218.32682 3140.83282 4218.42995 3140.69624 4218.58074 3140.61527 4219.07664 3140.47417 4219.61451 3140.24651 4220.12033 3139.95448 4220.58643 3139.6025 4221.00574 3139.1959 4221.37191 3138.74087 4221.67938 3138.24428 4221.9235 3137.71367 4222.10056 3137.15709 4222.20788 3136.58296 4222.24384 3136 4222.20788 3135.41704 4222.10056 3134.84291 4221.9235 3134.28633 4221.67938 3133.75572 4221.37191 3133.25913 4221.00574 3132.8041 4220.58643 3132.3975 4220.12033 3132.04552 4219.61451 3131.75349 4219.07664 3131.52583 4218.58074 3131.38473 4218.42995 3131.30376 4218.32682 3131.16718 4218.2902 3131 4218.32682 3130.83282 4218.42995 3130.69624 4218.58074 3130.61527 4219.07664 3130.47417 4219.61451 3130.24651 4220.12033 3129.95448 4220.58643 3129.6025 4221.00574 3129.1959 4221.37191 3128.74087 4221.67938 3128.24428 4221.9235 3127.71367 4222.10056 3127.15709 4222.20788 3126.58296 4222.24384 3126 4222.20788 3125.41704 4222.10056 3124.84291 4221.9235 3124.28633 4221.67938 3123.75572 4221.37191 3123.25913 4221.00574 3122.8041 4220.58643 3122.3975 4220.12033 3122.04552 4219.61451 3121.75349 4219.07664 3121.52583 4218.58074 3121.38473 4218.42995 3121.30376 4218.32682 3121.16718 4218.2902 3121 4218.32682 3120.83282 4218.42995 3120.69624 4218.58074 3120.61527 4219.07664 3120.47417 4219.61451 3120.24651 4220.12033 3119.95448 4220.58643 3119.6025 4221.00574 3119.1959 4221.37191 3118.74087 4221.67938 3118.24428 4221.9235 3117.71367 4222.10056 3117.15709 4222.20788 3116.58296 4222.24384 3116 4222.20788 3115.41704 4222.10056 3114.84291 4221.9235 3114.28633 4221.67938 3113.75572 4221.37191 3113.25913 4221.00574 3112.8041 4220.58643 3112.3975 4220.12033 3112.04552 4219.61451 3111.75349 4219.07664 3111.52583 4218.58074 3111.38473 4218.42995 3111.30376 4218.32682 3111.16718 4218.2902 3111 4218.32682 3110.83282 4218.42995 3110.69624 4218.58074 3110.61527 4219.07664 3110.47417 4219.61451 3110.24651 4220.12033 3109.95448 4220.58643 3109.6025 4221.00574 3109.1959 4221.37191 3108.74087 4221.67938 3108.24428 4221.9235 3107.71367 4222.10056 3107.15709 4222.20788 3106.58296 4222.24384 3106 4222.20788 3105.41704 4222.10056 3104.84291 4221.9235 3104.28633 4221.67938 3103.75572 4221.37191 3103.25913 4221.00574 3102.8041 4220.58643 3102.3975 4220.12033 3102.04552 4219.61451 3101.75349 4219.07664 3101.52583 4218.58074 3101.38473 4218.42995 3101.30376 4218.32682 3101.16718 4218.2902 3101 4218.32682 3100.83282 4218.42995 3100.69624 4218.58074 3100.61527 4219.07664 3100.47417 4219.61451 3100.24651 4220.12033 3099.95448 4220.58643 3099.6025 4221.00574 3099.1959 4221.37191 3098.74087 4221.67938 3098.24428 4221.9235 3097.71367 4222.10056 3097.15709 4222.20788 3096.58296 4222.24384 3096 4222.20788 3095.41704 4222.10056 3094.84291 4221.9235 3094.28633 4221.67938 3093.75572 4221.37191 3093.25913 4221.00574 3092.8041 4220.58643 3092.3975 4220.12033 3092.04552 4219.61451 3091.75349 4219.07664 3091.52583 4218.58074 3091.38473 4218.42995 3091.30376 4218.32682 3091.16718 4218.2902 3091 4218.32682 3090.83282 4218.42995 3090.69624 4218.58074 3090.61527 4219.07664 3090.47417 4219.61451 3090.24651 4220.12033 3089.95448 4220.58643 3089.6025 4221.00574 3089.1959 4221.37191 3088.74087 4221.67938 3088.24428 4221.9235 3087.71367 4222.10056 3087.15709 4222.20788 3086.58296 4222.24384 3086 4222.20788 3085.41704 4222.10056 3084.84291 4221.9235 3084.28633 4221.67938 3083.75572 4221.37191 3083.25913 4221.00574 3082.8041 4220.58643 3082.3975 4220.12033 3082.04552 4219.61451 3081.75349 4219.07664 3081.52583 4218.51486 3081.36599 4217.93771 3081.2764 4217.35391 3081.25841 4216.77233 3081.3123 4216.20179 3081.43725 4215.65092 3081.63137 4215.12808 3081.89171 4214.6412 3082.21433 4214.19765 3082.59434 4213.80417 3083.02597 4213.46671 3083.50269 4213.19039 3084.01726 4212.9794 3084.56189 4212.83693 3085.12832 4212.76516 3085.70796 4212.76516 3086.29204 4212.83693 3086.87168 4212.9794 3087.43811 4213.19039 3087.98274 4213.46671 3088.49731 4213.80417 3088.97403 4214.19765 3089.40566 4214.6412 3089.78567 4215.12808 3090.10829 4215.65092 3090.36863 4216.20179 3090.56275 4216.41418 3090.60926 4216.55538 3090.6705 4216.66301 3090.78052 4216.72113 3090.92304 4216.72113 3091.07696 4216.66301 3091.21948 4216.55538 3091.3295 4216.41418 3091.39074 4216.20179 3091.43725 4215.65092 3091.63137 4215.12808 3091.89171 4214.6412 3092.21433 4214.19765 3092.59434 4213.80417 3093.02597 4213.46671 3093.50269 4213.19039 3094.01726 4212.9794 3094.56189 4212.83693 3095.12832 4212.76516 3095.70796 4212.76516 3096.29204 4212.83693 3096.87168 4212.9794 3097.43811 4213.19039 3097.98274 4213.46671 3098.49731 4213.80417 3098.97403 4214.19765 3099.40566 4214.6412 3099.78567 4215.12808 3100.10829 4215.65092 3100.36863 4216.20179 3100.56275 4216.41418 3100.60926 4216.55538 3100.6705 4216.66301 3100.78052 4216.72113 3100.92304 4216.72113 3101.07696 4216.66301 3101.21948 4216.55538 3101.3295 4216.41418 3101.39074 4216.20179 3101.43725 4215.65092 3101.63137 4215.12808 3101.89171 4214.6412 3102.21433 4214.19765 3102.59434 4213.80417 3103.02597 4213.46671 3103.50269 4213.19039 3104.01726 4212.9794 3104.56189 4212.83693 3105.12832 4212.76516 3105.70796 4212.76516 3106.29204 4212.83693 3106.87168 4212.9794 3107.43811 4213.19039 3107.98274 4213.46671 3108.49731 4213.80417 3108.97403 4214.19765 3109.40566 4214.6412 3109.78567 4215.12808 3110.10829 4215.65092 3110.36863 4216.20179 3110.56275 4216.41418 3110.60926 4216.55538 3110.6705 4216.66301 3110.78052 4216.72113 3110.92304 4216.72113 3111.07696 4216.66301 3111.21948 4216.55538 3111.3295 4216.41418 3111.39074 4216.20179 3111.43725 4215.65092 3111.63137 4215.12808 3111.89171 4214.6412 3112.21433 4214.19765 3112.59434 4213.80417 3113.02597 4213.46671 3113.50269 4213.19039 3114.01726 4212.9794 3114.56189 4212.83693 3115.12832 4212.76516 3115.70796 4212.76516 3116.29204 4212.83693 3116.87168 4212.9794 3117.43811 4213.19039 3117.98274 4213.46671 3118.49731 4213.80417 3118.97403 4214.19765 3119.40566 4214.6412 3119.78567 4215.12808 3120.10829 4215.65092 3120.36863 4216.20179 3120.56275 4216.41418 3120.60926 4216.55538 3120.6705 4216.66301 3120.78052 4216.72113 3120.92304 4216.72113 3121.07696 4216.66301 3121.21948 4216.55538 3121.3295 4216.41418 3121.39074 4216.20179 3121.43725 4215.65092 3121.63137 4215.12808 3121.89171 4214.6412 3122.21433 4214.19765 3122.59434 4213.80417 3123.02597 4213.46671 3123.50269 4213.19039 3124.01726 4212.9794 3124.56189 4212.83693 3125.12832 4212.76516 3125.70796 4212.76516 3126.29204 4212.83693 3126.87168 4212.9794 3127.43811 4213.19039 3127.98274 4213.46671 3128.49731 4213.80417 3128.97403 4214.19765 3129.40566 4214.6412 3129.78567 4215.12808 3130.10829 4215.65092 3130.36863 4216.20179 3130.56275 4216.41418 3130.60926 4216.55538 3130.6705 4216.66301 3130.78052 4216.72113 3130.92304 4216.72113 3131.07696 4216.66301 3131.21948 4216.55538 3131.3295 4216.41418 3131.39074 4216.20179 3131.43725 4215.65092 3131.63137 4215.12808 3131.89171 4214.6412 3132.21433 4214.19765 3132.59434 4213.80417 3133.02597 4213.46671 3133.50269 4213.19039 3134.01726 4212.9794 3134.56189 4212.83693 3135.12832 4212.76516 3135.70796 4212.76516 3136.29204 4212.83693 3136.87168 4212.9794 3137.43811 4213.19039 3137.98274 4213.46671 3138.49731 4213.80417 3138.97403 4214.19765 3139.40566 4214.6412 3139.78567 4215.12808 3140.10829 4215.65092 3140.36863 4216.20179 3140.56275 4216.41418 3140.60926 4216.55538 3140.6705 4216.66301 3140.78052 4216.72113 3140.92304 4216.72113 3141.07696 4216.66301 3141.21948 4216.55538 3141.3295 4216.41418 3141.39074 4216.20179 3141.43725 4215.65092 3141.63137 4215.12808 3141.89171 4214.6412 3142.21433 4214.19765 3142.59434 4213.80417 3143.02597 4213.46671 3143.50269 4213.19039 3144.01726 4212.9794 3144.56189 4212.83693 3145.12832 4212.76516 3145.70796 4212.76516 3146.29204 4212.83693 3146.87168 4212.9794 3147.43811 4213.19039 3147.98274 4213.46671 3148.49731 4213.80417 3148.97403 4214.19765 3149.40566 4214.6412 3149.78567 4215.12808 3150.10829 4215.65092 3150.36863 4216.20179 3150.56275 4216.41418 3150.60926 4216.55538 3150.6705 4216.66301 3150.78052 4216.72113 3150.92304 4216.72113 3151.07696 4216.66301 3151.21948 4216.55538 3151.3295 4216.41418 3151.39074 4216.20179 3151.43725 4215.65092 3151.63137 4215.12808 3151.89171 4214.6412 3152.21433 4214.19765 3152.59434 4213.80417 3153.02597 4213.46671 3153.50269 4213.19039 3154.01726 4212.9794 3154.56189 4212.83693 3155.12832 4212.76516 3155.70796 4212.76516 3156.29204 4212.83693 3156.87168 4212.9794 3157.43811 4213.19039 3157.98274 4213.46671 3158.49731 4213.80417 3158.97403 4214.19765 3159.40566 4214.6412 3159.78567 4215.12808 3160.10829 4215.65092 3160.36863 4216.20179 3160.56275 4216.41418 3160.60926 4216.55538 3160.6705 4216.66301 3160.78052 4216.72113 3160.92304 4216.72113 3161.07696 4216.66301 3161.21948 4216.55538 3161.3295 4216.41418 3161.39074 4216.20179 3161.43725 4215.65092 3161.63137 4215.12808 3161.89171 4214.6412 3162.21433 4214.19765 3162.59434 4213.80417 3163.02597 4213.46671 3163.50269 4213.19039 3164.01726 4212.9794 3164.56189 4212.83693 3165.12832 4212.76516 3165.70796 4212.76516 3166.29204 4212.83693 3166.87168 4212.9794 3167.43811 4213.19039 3167.98274 4213.46671 3168.49731 4213.80417 3168.97403 4214.19765 3169.40566 4214.6412 3169.78567 4215.12808 3170.10829 4215.65092 3170.36863 4216.20179 3170.56275 4216.41418 3170.60926 4216.55538 3170.6705 4216.66301 3170.78052 4216.72113 3170.92304 4216.72113 3171.07696 4216.66301 3171.21948 4216.55538 3171.3295 4216.41418 3171.39074 4216.20179 3171.43725 4215.65092 3171.63137 4215.12808 3171.89171 4214.6412 3172.21433 4214.19765 3172.59434 4213.80417 3173.02597 4213.46671 3173.50269 4213.19039 3174.01726 4212.9794 3174.56189 4212.83693 3175.12832 4212.76516 3175.70796 4212.76516 3176.29204 4212.83693 3176.87168 4212.9794 3177.43811 4213.19039 3177.98274 4213.46671 3178.49731 4213.80417 3178.97403 4214.19765 3179.40566 4214.6412 3179.78567 4215.12808 3180.10829 4215.65092 3180.36863 4216.20179 3180.56275 4216.41418 3180.60926 4216.55538 3180.6705 4216.66301 3180.78052 4216.72113 3180.92304 4216.72113 3181.07696 4216.66301 3181.21948 4216.55538 3181.3295 4216.41418 3181.39074 4216.20179 3181.43725 4215.65092 3181.63137 4215.12808 3181.89171 4214.6412 3182.21433 4214.19765 3182.59434 4213.80417 3183.02597 4213.46671 3183.50269 4213.19039 3184.01726 4212.9794 3184.56189 4212.83693 3185.12832 4212.76516 3185.70796 4212.76516 3186.29204 4212.83693 3186.87168 4212.9794 3187.43811 4213.19039 3187.98274 4213.46671 3188.49731 4213.80417 3188.97403 4214.19765 3189.40566 4214.6412 3189.78567 4215.12808 3190.10829 4215.65092 3190.36863 4216.20179 3190.56275 4216.41418 3190.60926 4216.55538 3190.6705 4216.66301 3190.78052 4216.72113 3190.92304 4216.72113 3191.07696 4216.66301 3191.21948 4216.55538 3191.3295 4216.41418 3191.39074 4216.20179 3191.43725 4215.65092 3191.63137 4215.12808 3191.89171 4214.6412 3192.21433 4214.19765 3192.59434 4213.80417 3193.02597 4213.46671 3193.50269 4213.19039 3194.01726 4212.9794 3194.56189 4212.83693 3195.12832 4212.76516 3195.70796 4212.76516 3196.29204 4212.83693 3196.87168 4212.9794 3197.43811 4213.19039 3197.98274 4213.46671 3198.49731 4213.80417 3198.97403 4214.19765 3199.40566 4214.6412 3199.78567 4215.12808 3200.10829 4215.65092 3200.36863 4216.20179 3200.56275 4216.41418 3200.60926 4216.55538 3200.6705 4216.66301 3200.78052 4216.72113 3200.92304 4216.72113 3201.07696 4216.66301 3201.21948 4216.55538 3201.3295 4216.41418 3201.39074 4216.20179 3201.43725 4215.65092 3201.63137 4215.12808 3201.89171 4214.6412 3202.21433 4214.19765 3202.59434 4213.80417 3203.02597 4213.46671 3203.50269 4213.19039 3204.01726 4212.9794 3204.56189 4212.83693 3205.12832 4212.76516 3205.70796 4212.76516 3206.29204 4212.83693 3206.87168 4212.9794 3207.43811 4213.19039 3207.98274 4213.46671 3208.49731 4213.80417 3208.97403 4214.19765 3209.40566 4214.6412 3209.78567 4215.12808 3210.10829 4215.65092 3210.36863 4216.20179 3210.56275 4216.41418 3210.60926 4216.55538 3210.6705 4216.66301 3210.78052 4216.72113 3210.92304 4216.72113 3211.07696 4216.66301 3211.21948 4216.55538 3211.3295 4216.41418 3211.39074 4216.20179 3211.43725 4215.65092 3211.63137 4215.12808 3211.89171 4214.6412 3212.21433 4214.19765 3212.59434 4213.80417 3213.02597 4213.46671 3213.50269 4213.19039 3214.01726 4212.9794 3214.56189 4212.83693 3215.12832 4212.76516 3215.70796 4212.76516 3216.29204 4212.83693 3216.87168 4212.9794 3217.43811 4213.19039 3217.98274 4213.46671 3218.49731 4213.80417 3218.97403 4214.19765 3219.40566 4214.6412 3219.78567 4215.12808 3220.10829 4215.65092 3220.36863 4216.20179 3220.56275 4216.41418 3220.60926 4216.55538 3220.6705 4216.66301 3220.78052 4216.72113 3220.92304 4216.72113 3221.07696 4216.66301 3221.21948 4216.55538 3221.3295 4216.41418 3221.39074 4216.20179 3221.43725 4215.65092 3221.63137 4215.12808 3221.89171 4214.6412 3222.21433 4214.19765 3222.59434 4213.80417 3223.02597 4213.46671 3223.50269 4213.19039 3224.01726 4212.9794 3224.56189 4212.83693 3225.12832 4212.76516 3225.70796 4212.76516 3226.29204 4212.83693 3226.87168 4212.9794 3227.43811 4213.19039 3227.98274 4213.46671 3228.49731 4213.80417 3228.97403 4214.19765 3229.40566 4214.6412 3229.78567 4215.12808 3230.10829 4215.65092 3230.36863 4216.20179 3230.56275 4216.41418 3230.60926 4216.55538 3230.6705 4216.66301 3230.78052 4216.72113 3230.92304 4216.72113 3231.07696 4216.66301 3231.21948 4216.55538 3231.3295 4216.41418 3231.39074 4216.20179 3231.43725 4215.65092 3231.63137 4215.12808 3231.89171 4214.6412 3232.21433 4214.19765 3232.59434 4213.80417 3233.02597 4213.46671 3233.50269 4213.19039 3234.01726 4212.9794 3234.56189 4212.83693 3235.12832 4212.76516 3235.70796 4212.76516 3236.29204 4212.83693 3236.87168 4212.9794 3237.43811 4213.19039 3237.98274 4213.46671 3238.49731 4213.80417 3238.97403 4214.19765 3239.40566 4214.6412 3239.78567 4215.12808 3240.10829 4215.65092 3240.36863 4216.20179 3240.56275 4216.41418 3240.60926 4216.55538 3240.6705 4216.66301 3240.78052 4216.72113 3240.92304 4216.72113 3241.07696 4216.66301 3241.21948 4216.55538 3241.3295 4216.41418 3241.39074 4216.20179 3241.43725 4215.65092 3241.63137 4215.12808 3241.89171 4214.6412 3242.21433 4214.19765 3242.59434 4213.80417 3243.02597 4213.46671 3243.50269 4213.19039 3244.01726 4212.9794 3244.56189 4212.83693 3245.12832 4212.76516 3245.70796 4212.76516 3246.29204 4212.83693 3246.87168 4212.9794 3247.43811 4213.19039 3247.98274 4213.46671 3248.49731 4213.80417 3248.97403 4214.19765 3249.40566 4214.6412 3249.78567 4215.12808 3250.10829 4215.65092 3250.36863 4216.20179 3250.56275 4216.41418 3250.60926 4216.55538 3250.6705 4216.66301 3250.78052 4216.72113 3250.92304 4216.72113 3251.07696 4216.66301 3251.21948 4216.55538 3251.3295 4216.41418 3251.39074 4216.20179 3251.43725 4215.65092 3251.63137 4215.12808 3251.89171 4214.6412 3252.21433 4214.19765 3252.59434 4213.80417 3253.02597 4213.46671 3253.50269 4213.19039 3254.01726 4212.9794 3254.56189 4212.83693 3255.12832 4212.76516 3255.70796 4212.76516 3256.29204 4212.83693 3256.87168 4212.8521 3256.93199 4212.85718 3257.10407 4212.78947 3257.26234 4212.66151 3257.3775 4212.497 3257.42821 4212.32641 3257.40508 4212.18134 3257.3124 4189.49936 3234.63042 4189.41265 3234.50065 4189.3822 3234.34758 4189.3822 3149.15242 4189.41265 3148.99935 4189.49936 3148.86958 4194.51859 3143.85035 4194.65182 3143.76223 4194.80891 3143.73326 4194.96481 3143.76808 4195.09465 3143.86112 4195.17773 3143.99756 4195.2008 3144.15562 4195.16018 3144.31011 4195.11948 3144.39264 4194.94288 3144.9129 4194.83569 3145.45176 4194.79976 3146 4194.83569 3146.54824 4194.94288 3147.0871 4195.11948 3147.60736 4195.36248 3148.10012 4195.66772 3148.55695 4196.02998 3148.97002 4196.44305 3149.33228 4196.89988 3149.63752 4197.39264 3149.88052 4197.9129 3150.05712 4198.45176 3150.16431 4199 3150.20024 4199.54824 3150.16431 4200.0871 3150.05712 4200.60736 3149.88052 4201.10012 3149.63752 4201.55695 3149.33228 4201.97002 3148.97002 4202.33228 3148.55695 4202.63752 3148.10012 4202.88052 3147.60736 4203.05712 3147.0871 4203.16431 3146.54824 4203.20024 3146 4203.16431 3145.45176 4203.05712 3144.9129 4202.88052 3144.39264 4202.63752 3143.89988 4202.33228 3143.44305 4201.97002 3143.02998 4201.55695 3142.66772 4201.10012 3142.36248 4200.60736 3142.11948 4200.0871 3141.94288 4199.54824 3141.83569 4199 3141.79976 4198.45176 3141.83569 4197.9129 3141.94288 4197.39264 3142.11948 4197.31011 3142.16018 4197.15562 3142.2008 4196.99756 3142.17773 4196.86112 3142.09465 4196.76808 3141.96481 4196.73326 3141.80891 4196.76223 3141.65182 4196.85035 3141.51859 4198.09445 3140.27449 4198.23728 3140.18264 4198.40534 3140.15832 4199.00095 3140.20018 4199.54824 3140.16431 4200.0871 3140.05712 4200.60736 3139.88052 4201.10012 3139.63752 4201.55695 3139.33228 4201.97002 3138.97002 4202.33228 3138.55695 4202.63752 3138.10012 4202.88052 3137.60736 4203.05712 3137.0871 4203.16431 3136.54824 4203.20024 3136 4203.16431 3135.45176 4203.05712 3134.9129 4202.88052 3134.39264 4202.63752 3133.89988 4202.33228 3133.44305 4201.97002 3133.02998 4201.55695 3132.66772 4201.10012 3132.36248 4200.60736 3132.11948 4200.0871 3131.94288 4199.54824 3131.83569 4199 3131.79976 4198.45176 3131.83569 4197.9129 3131.94288 4197.39264 3132.11948 4196.89988 3132.36248 4196.44305 3132.66772 4196.02998 3133.02998 4195.66772 3133.44305 4195.36248 3133.89988 4195.11948 3134.39264 4194.94288 3134.9129 4194.83569 3135.45176 4194.79982 3135.99905 4194.84168 3136.59466 4194.81736 3136.76272 4194.72551 3136.90555 4185.3243 3146.30676 4185.11523 3146.54351 4185.06627 3146.60917 4184.90121 3146.8736 4184.86372 3146.94643 4184.74443 3147.23441 4184.71944 3147.31242 4184.64918 3147.61611 4184.63737 3147.69716 4184.6178 3148.0124 4184.6178 3235.4876 4184.63737 3235.80284 4184.64918 3235.88389 4184.71944 3236.18758 4184.74443 3236.26559 4184.86372 3236.55357 4184.90121 3236.6264 4185.06627 3236.89083 4185.11523 3236.95649 4185.3243 3237.19324 4212.76142 3264.63036 4212.84023 3264.7423 4212.87668 3264.87425 4212.8665 3265.01077 4212.83693 3265.12832 4212.76516 3265.70796 4212.76516 3266.29204 4212.83693 3266.87168 4212.9794 3267.43811 4213.19039 3267.98274 4213.46671 3268.49731 4213.80417 3268.97403 4214.19765 3269.40566 4214.6412 3269.78567 4215.12808 3270.10829 4215.65092 3270.36863 4216.20179 3270.56275 4216.41418 3270.60926 4216.55538 3270.6705 4216.66301 3270.78052 4216.72113 3270.92304 4216.72113 3271.07696 4216.66301 3271.21948 4216.55538 3271.3295 4216.41418 3271.39074 4216.20179 3271.43725 4215.65092 3271.63137 4215.12808 3271.89171 4214.6412 3272.21433 4214.19765 3272.59434 4213.80417 3273.02597 4213.46671 3273.50269 4213.19039 3274.01726 4212.9794 3274.56189 4212.83693 3275.12832 4212.76516 3275.70796 4212.76516 3276.29204 4212.83693 3276.87168 4212.9794 3277.43811 4213.19039 3277.98274 4213.46671 3278.49731 4213.80417 3278.97403 4214.19765 3279.40566 4214.6412 3279.78567 4215.12808 3280.10829 4215.65092 3280.36863 4216.20179 3280.56275 4216.41418 3280.60926 4216.55538 3280.6705 4216.66301 3280.78052 4216.72113 3280.92304 4216.72113 3281.07696 4216.66301 3281.21948 4216.55538 3281.3295 4216.41418 3281.39074 4216.20179 3281.43725 4215.65092 3281.63137 4215.12808 3281.89171 4214.6412 3282.21433 4214.19765 3282.59434 4213.80417 3283.02597 4213.46671 3283.50269 4213.19039 3284.01726 4212.9794 3284.56189 4212.83693 3285.12832 4212.76516 3285.70796 4212.76516 3286.29204 4212.83693 3286.87168 4212.9794 3287.43811 4213.19039 3287.98274 4213.46671 3288.49731 4213.80417 3288.97403 4214.19765 3289.40566 4214.6412 3289.78567 4215.12808 3290.10829 4215.65092 3290.36863 4216.20179 3290.56275 4216.77233 3290.6877 Z M 4321.77233 3290.6877 L 4322.35391 3290.74159 4322.93771 3290.7236 4323.51486 3290.63401 4324.07664 3290.47417 4324.61451 3290.24651 4325.12033 3289.95448 4325.58643 3289.6025 4326.00574 3289.1959 4326.37191 3288.74087 4326.67938 3288.24428 4326.9235 3287.71367 4327.10056 3287.15709 4327.20788 3286.58296 4327.24384 3286 4327.20788 3285.41704 4327.10056 3284.84291 4326.9235 3284.28633 4326.67938 3283.75572 4326.37191 3283.25913 4326.00574 3282.8041 4325.58643 3282.3975 4325.12033 3282.04552 4324.61451 3281.75349 4324.07664 3281.52583 4323.58074 3281.38473 4323.42995 3281.30376 4323.32682 3281.16718 4323.2902 3281 4323.32682 3280.83282 4323.42995 3280.69624 4323.58074 3280.61527 4324.07664 3280.47417 4324.61451 3280.24651 4325.12033 3279.95448 4325.58643 3279.6025 4326.00574 3279.1959 4326.37191 3278.74087 4326.67938 3278.24428 4326.9235 3277.71367 4327.10056 3277.15709 4327.20788 3276.58296 4327.24384 3276 4327.20788 3275.41704 4327.10056 3274.84291 4326.9235 3274.28633 4326.67938 3273.75572 4326.37191 3273.25913 4326.00574 3272.8041 4325.58643 3272.3975 4325.12033 3272.04552 4324.61451 3271.75349 4324.07664 3271.52583 4323.58074 3271.38473 4323.42995 3271.30376 4323.32682 3271.16718 4323.2902 3271 4323.32682 3270.83282 4323.42995 3270.69624 4323.58074 3270.61527 4324.07664 3270.47417 4324.61451 3270.24651 4325.12033 3269.95448 4325.58643 3269.6025 4326.00574 3269.1959 4326.37191 3268.74087 4326.67938 3268.24428 4326.9235 3267.71367 4327.10056 3267.15709 4327.20788 3266.58296 4327.24384 3266 4327.20788 3265.41704 4327.10056 3264.84291 4326.9235 3264.28633 4326.67938 3263.75572 4326.37191 3263.25913 4326.00574 3262.8041 4325.58643 3262.3975 4325.12033 3262.04552 4324.61451 3261.75349 4324.07664 3261.52583 4323.58074 3261.38473 4323.42995 3261.30376 4323.32682 3261.16718 4323.2902 3261 4323.32682 3260.83282 4323.42995 3260.69624 4323.58074 3260.61527 4324.07664 3260.47417 4324.61451 3260.24651 4325.12033 3259.95448 4325.58643 3259.6025 4326.00574 3259.1959 4326.37191 3258.74087 4326.67938 3258.24428 4326.9235 3257.71367 4327.10056 3257.15709 4327.20788 3256.58296 4327.24384 3256 4327.20788 3255.41704 4327.10056 3254.84291 4326.9235 3254.28633 4326.67938 3253.75572 4326.37191 3253.25913 4326.00574 3252.8041 4325.58643 3252.3975 4325.12033 3252.04552 4324.61451 3251.75349 4324.07664 3251.52583 4323.58074 3251.38473 4323.42995 3251.30376 4323.32682 3251.16718 4323.2902 3251 4323.32682 3250.83282 4323.42995 3250.69624 4323.58074 3250.61527 4324.07664 3250.47417 4324.61451 3250.24651 4325.12033 3249.95448 4325.58643 3249.6025 4326.00574 3249.1959 4326.37191 3248.74087 4326.67938 3248.24428 4326.9235 3247.71367 4327.10056 3247.15709 4327.20788 3246.58296 4327.24384 3246 4327.20788 3245.41704 4327.10056 3244.84291 4326.9235 3244.28633 4326.67938 3243.75572 4326.37191 3243.25913 4326.00574 3242.8041 4325.58643 3242.3975 4325.12033 3242.04552 4324.61451 3241.75349 4324.07664 3241.52583 4323.58074 3241.38473 4323.42995 3241.30376 4323.32682 3241.16718 4323.2902 3241 4323.32682 3240.83282 4323.42995 3240.69624 4323.58074 3240.61527 4324.07664 3240.47417 4324.61451 3240.24651 4325.12033 3239.95448 4325.58643 3239.6025 4326.00574 3239.1959 4326.37191 3238.74087 4326.67938 3238.24428 4326.9235 3237.71367 4327.10056 3237.15709 4327.20788 3236.58296 4327.24384 3236 4327.20788 3235.41704 4327.10056 3234.84291 4326.9235 3234.28633 4326.67938 3233.75572 4326.37191 3233.25913 4326.00574 3232.8041 4325.58643 3232.3975 4325.12033 3232.04552 4324.61451 3231.75349 4324.07664 3231.52583 4323.58074 3231.38473 4323.42995 3231.30376 4323.32682 3231.16718 4323.2902 3231 4323.32682 3230.83282 4323.42995 3230.69624 4323.58074 3230.61527 4324.07664 3230.47417 4324.61451 3230.24651 4325.12033 3229.95448 4325.58643 3229.6025 4326.00574 3229.1959 4326.37191 3228.74087 4326.67938 3228.24428 4326.9235 3227.71367 4327.10056 3227.15709 4327.20788 3226.58296 4327.24384 3226 4327.20788 3225.41704 4327.10056 3224.84291 4326.9235 3224.28633 4326.67938 3223.75572 4326.37191 3223.25913 4326.00574 3222.8041 4325.58643 3222.3975 4325.12033 3222.04552 4324.61451 3221.75349 4324.07664 3221.52583 4323.58074 3221.38473 4323.42995 3221.30376 4323.32682 3221.16718 4323.2902 3221 4323.32682 3220.83282 4323.42995 3220.69624 4323.58074 3220.61527 4324.07664 3220.47417 4324.61451 3220.24651 4325.12033 3219.95448 4325.58643 3219.6025 4326.00574 3219.1959 4326.37191 3218.74087 4326.67938 3218.24428 4326.9235 3217.71367 4327.10056 3217.15709 4327.20788 3216.58296 4327.24384 3216 4327.20788 3215.41704 4327.10056 3214.84291 4326.9235 3214.28633 4326.67938 3213.75572 4326.37191 3213.25913 4326.00574 3212.8041 4325.58643 3212.3975 4325.12033 3212.04552 4324.61451 3211.75349 4324.07664 3211.52583 4323.58074 3211.38473 4323.42995 3211.30376 4323.32682 3211.16718 4323.2902 3211 4323.32682 3210.83282 4323.42995 3210.69624 4323.58074 3210.61527 4324.07664 3210.47417 4324.61451 3210.24651 4325.12033 3209.95448 4325.58643 3209.6025 4326.00574 3209.1959 4326.37191 3208.74087 4326.67938 3208.24428 4326.9235 3207.71367 4327.10056 3207.15709 4327.20788 3206.58296 4327.24384 3206 4327.20788 3205.41704 4327.10056 3204.84291 4326.9235 3204.28633 4326.67938 3203.75572 4326.37191 3203.25913 4326.00574 3202.8041 4325.58643 3202.3975 4325.12033 3202.04552 4324.61451 3201.75349 4324.07664 3201.52583 4323.58074 3201.38473 4323.42995 3201.30376 4323.32682 3201.16718 4323.2902 3201 4323.32682 3200.83282 4323.42995 3200.69624 4323.58074 3200.61527 4324.07664 3200.47417 4324.61451 3200.24651 4325.12033 3199.95448 4325.58643 3199.6025 4326.00574 3199.1959 4326.37191 3198.74087 4326.67938 3198.24428 4326.9235 3197.71367 4327.10056 3197.15709 4327.20788 3196.58296 4327.24384 3196 4327.20788 3195.41704 4327.10056 3194.84291 4326.9235 3194.28633 4326.67938 3193.75572 4326.37191 3193.25913 4326.00574 3192.8041 4325.58643 3192.3975 4325.12033 3192.04552 4324.61451 3191.75349 4324.07664 3191.52583 4323.58074 3191.38473 4323.42995 3191.30376 4323.32682 3191.16718 4323.2902 3191 4323.32682 3190.83282 4323.42995 3190.69624 4323.58074 3190.61527 4324.07664 3190.47417 4324.61451 3190.24651 4325.12033 3189.95448 4325.58643 3189.6025 4326.00574 3189.1959 4326.37191 3188.74087 4326.67938 3188.24428 4326.9235 3187.71367 4327.10056 3187.15709 4327.20788 3186.58296 4327.24384 3186 4327.20788 3185.41704 4327.10056 3184.84291 4326.9235 3184.28633 4326.67938 3183.75572 4326.37191 3183.25913 4326.00574 3182.8041 4325.58643 3182.3975 4325.12033 3182.04552 4324.61451 3181.75349 4324.07664 3181.52583 4323.58074 3181.38473 4323.42995 3181.30376 4323.32682 3181.16718 4323.2902 3181 4323.32682 3180.83282 4323.42995 3180.69624 4323.58074 3180.61527 4324.07664 3180.47417 4324.61451 3180.24651 4325.12033 3179.95448 4325.58643 3179.6025 4326.00574 3179.1959 4326.37191 3178.74087 4326.67938 3178.24428 4326.9235 3177.71367 4327.10056 3177.15709 4327.20788 3176.58296 4327.24384 3176 4327.20788 3175.41704 4327.10056 3174.84291 4326.9235 3174.28633 4326.67938 3173.75572 4326.37191 3173.25913 4326.00574 3172.8041 4325.58643 3172.3975 4325.12033 3172.04552 4324.61451 3171.75349 4324.07664 3171.52583 4323.58074 3171.38473 4323.42995 3171.30376 4323.32682 3171.16718 4323.2902 3171 4323.32682 3170.83282 4323.42995 3170.69624 4323.58074 3170.61527 4324.07664 3170.47417 4324.61451 3170.24651 4325.12033 3169.95448 4325.58643 3169.6025 4326.00574 3169.1959 4326.37191 3168.74087 4326.67938 3168.24428 4326.9235 3167.71367 4327.10056 3167.15709 4327.20788 3166.58296 4327.24384 3166 4327.20788 3165.41704 4327.10056 3164.84291 4326.9235 3164.28633 4326.67938 3163.75572 4326.37191 3163.25913 4326.00574 3162.8041 4325.58643 3162.3975 4325.12033 3162.04552 4324.61451 3161.75349 4324.07664 3161.52583 4323.58074 3161.38473 4323.42995 3161.30376 4323.32682 3161.16718 4323.2902 3161 4323.32682 3160.83282 4323.42995 3160.69624 4323.58074 3160.61527 4324.07664 3160.47417 4324.61451 3160.24651 4325.12033 3159.95448 4325.58643 3159.6025 4326.00574 3159.1959 4326.37191 3158.74087 4326.67938 3158.24428 4326.9235 3157.71367 4327.10056 3157.15709 4327.20788 3156.58296 4327.24384 3156 4327.20788 3155.41704 4327.10056 3154.84291 4326.9235 3154.28633 4326.67938 3153.75572 4326.37191 3153.25913 4326.00574 3152.8041 4325.58643 3152.3975 4325.12033 3152.04552 4324.61451 3151.75349 4324.07664 3151.52583 4323.51486 3151.36599 4322.93771 3151.2764 4322.35391 3151.25841 4321.77233 3151.3123 4321.20179 3151.43725 4320.65092 3151.63137 4320.12808 3151.89171 4319.6412 3152.21433 4319.19765 3152.59434 4318.80417 3153.02597 4318.46671 3153.50269 4318.19039 3154.01726 4317.9794 3154.56189 4317.83693 3155.12832 4317.76516 3155.70796 4317.76516 3156.29204 4317.83693 3156.87168 4317.9794 3157.43811 4318.19039 3157.98274 4318.46671 3158.49731 4318.80417 3158.97403 4319.19765 3159.40566 4319.6412 3159.78567 4320.12808 3160.10829 4320.65092 3160.36863 4321.20179 3160.56275 4321.41418 3160.60926 4321.55538 3160.6705 4321.66301 3160.78052 4321.72113 3160.92304 4321.72113 3161.07696 4321.66301 3161.21948 4321.55538 3161.3295 4321.41418 3161.39074 4321.20179 3161.43725 4320.65092 3161.63137 4320.12808 3161.89171 4319.6412 3162.21433 4319.19765 3162.59434 4318.80417 3163.02597 4318.46671 3163.50269 4318.19039 3164.01726 4317.9794 3164.56189 4317.83693 3165.12832 4317.76516 3165.70796 4317.76516 3166.29204 4317.83693 3166.87168 4317.9794 3167.43811 4318.19039 3167.98274 4318.46671 3168.49731 4318.80417 3168.97403 4319.19765 3169.40566 4319.6412 3169.78567 4320.12808 3170.10829 4320.65092 3170.36863 4321.20179 3170.56275 4321.41418 3170.60926 4321.55538 3170.6705 4321.66301 3170.78052 4321.72113 3170.92304 4321.72113 3171.07696 4321.66301 3171.21948 4321.55538 3171.3295 4321.41418 3171.39074 4321.20179 3171.43725 4320.65092 3171.63137 4320.12808 3171.89171 4319.6412 3172.21433 4319.19765 3172.59434 4318.80417 3173.02597 4318.46671 3173.50269 4318.19039 3174.01726 4317.9794 3174.56189 4317.83693 3175.12832 4317.76516 3175.70796 4317.76516 3176.29204 4317.83693 3176.87168 4317.9794 3177.43811 4318.19039 3177.98274 4318.46671 3178.49731 4318.80417 3178.97403 4319.19765 3179.40566 4319.6412 3179.78567 4320.12808 3180.10829 4320.65092 3180.36863 4321.20179 3180.56275 4321.41418 3180.60926 4321.55538 3180.6705 4321.66301 3180.78052 4321.72113 3180.92304 4321.72113 3181.07696 4321.66301 3181.21948 4321.55538 3181.3295 4321.41418 3181.39074 4321.20179 3181.43725 4320.65092 3181.63137 4320.12808 3181.89171 4319.6412 3182.21433 4319.19765 3182.59434 4318.80417 3183.02597 4318.46671 3183.50269 4318.19039 3184.01726 4317.9794 3184.56189 4317.83693 3185.12832 4317.76516 3185.70796 4317.76516 3186.29204 4317.83693 3186.87168 4317.9794 3187.43811 4318.19039 3187.98274 4318.46671 3188.49731 4318.80417 3188.97403 4319.19765 3189.40566 4319.6412 3189.78567 4320.12808 3190.10829 4320.65092 3190.36863 4321.20179 3190.56275 4321.41418 3190.60926 4321.55538 3190.6705 4321.66301 3190.78052 4321.72113 3190.92304 4321.72113 3191.07696 4321.66301 3191.21948 4321.55538 3191.3295 4321.41418 3191.39074 4321.20179 3191.43725 4320.65092 3191.63137 4320.12808 3191.89171 4319.6412 3192.21433 4319.19765 3192.59434 4318.80417 3193.02597 4318.46671 3193.50269 4318.19039 3194.01726 4317.9794 3194.56189 4317.83693 3195.12832 4317.76516 3195.70796 4317.76516 3196.29204 4317.83693 3196.87168 4317.9794 3197.43811 4318.19039 3197.98274 4318.46671 3198.49731 4318.80417 3198.97403 4319.19765 3199.40566 4319.6412 3199.78567 4320.12808 3200.10829 4320.65092 3200.36863 4321.20179 3200.56275 4321.41418 3200.60926 4321.55538 3200.6705 4321.66301 3200.78052 4321.72113 3200.92304 4321.72113 3201.07696 4321.66301 3201.21948 4321.55538 3201.3295 4321.41418 3201.39074 4321.20179 3201.43725 4320.65092 3201.63137 4320.12808 3201.89171 4319.6412 3202.21433 4319.19765 3202.59434 4318.80417 3203.02597 4318.46671 3203.50269 4318.19039 3204.01726 4317.9794 3204.56189 4317.83693 3205.12832 4317.76516 3205.70796 4317.76516 3206.29204 4317.83693 3206.87168 4317.9794 3207.43811 4318.19039 3207.98274 4318.46671 3208.49731 4318.80417 3208.97403 4319.19765 3209.40566 4319.6412 3209.78567 4320.12808 3210.10829 4320.65092 3210.36863 4321.20179 3210.56275 4321.41418 3210.60926 4321.55538 3210.6705 4321.66301 3210.78052 4321.72113 3210.92304 4321.72113 3211.07696 4321.66301 3211.21948 4321.55538 3211.3295 4321.41418 3211.39074 4321.20179 3211.43725 4320.65092 3211.63137 4320.12808 3211.89171 4319.6412 3212.21433 4319.19765 3212.59434 4318.80417 3213.02597 4318.46671 3213.50269 4318.19039 3214.01726 4317.9794 3214.56189 4317.83693 3215.12832 4317.76516 3215.70796 4317.76516 3216.29204 4317.83693 3216.87168 4317.9794 3217.43811 4318.19039 3217.98274 4318.46671 3218.49731 4318.80417 3218.97403 4319.19765 3219.40566 4319.6412 3219.78567 4320.12808 3220.10829 4320.65092 3220.36863 4321.20179 3220.56275 4321.41418 3220.60926 4321.55538 3220.6705 4321.66301 3220.78052 4321.72113 3220.92304 4321.72113 3221.07696 4321.66301 3221.21948 4321.55538 3221.3295 4321.41418 3221.39074 4321.20179 3221.43725 4320.65092 3221.63137 4320.12808 3221.89171 4319.6412 3222.21433 4319.19765 3222.59434 4318.80417 3223.02597 4318.46671 3223.50269 4318.19039 3224.01726 4317.9794 3224.56189 4317.83693 3225.12832 4317.76516 3225.70796 4317.76516 3226.29204 4317.83693 3226.87168 4317.9794 3227.43811 4318.19039 3227.98274 4318.46671 3228.49731 4318.80417 3228.97403 4319.19765 3229.40566 4319.6412 3229.78567 4320.12808 3230.10829 4320.65092 3230.36863 4321.20179 3230.56275 4321.41418 3230.60926 4321.55538 3230.6705 4321.66301 3230.78052 4321.72113 3230.92304 4321.72113 3231.07696 4321.66301 3231.21948 4321.55538 3231.3295 4321.41418 3231.39074 4321.20179 3231.43725 4320.65092 3231.63137 4320.12808 3231.89171 4319.6412 3232.21433 4319.19765 3232.59434 4318.80417 3233.02597 4318.46671 3233.50269 4318.19039 3234.01726 4317.9794 3234.56189 4317.83693 3235.12832 4317.76516 3235.70796 4317.76516 3236.29204 4317.83693 3236.87168 4317.9794 3237.43811 4318.19039 3237.98274 4318.46671 3238.49731 4318.80417 3238.97403 4319.19765 3239.40566 4319.6412 3239.78567 4320.12808 3240.10829 4320.65092 3240.36863 4321.20179 3240.56275 4321.41418 3240.60926 4321.55538 3240.6705 4321.66301 3240.78052 4321.72113 3240.92304 4321.72113 3241.07696 4321.66301 3241.21948 4321.55538 3241.3295 4321.41418 3241.39074 4321.20179 3241.43725 4320.65092 3241.63137 4320.12808 3241.89171 4319.6412 3242.21433 4319.19765 3242.59434 4318.80417 3243.02597 4318.46671 3243.50269 4318.19039 3244.01726 4317.9794 3244.56189 4317.83693 3245.12832 4317.76516 3245.70796 4317.76516 3246.29204 4317.83693 3246.87168 4317.9794 3247.43811 4318.19039 3247.98274 4318.46671 3248.49731 4318.80417 3248.97403 4319.19765 3249.40566 4319.6412 3249.78567 4320.12808 3250.10829 4320.65092 3250.36863 4321.20179 3250.56275 4321.41418 3250.60926 4321.55538 3250.6705 4321.66301 3250.78052 4321.72113 3250.92304 4321.72113 3251.07696 4321.66301 3251.21948 4321.55538 3251.3295 4321.41418 3251.39074 4321.20179 3251.43725 4320.65092 3251.63137 4320.12808 3251.89171 4319.6412 3252.21433 4319.19765 3252.59434 4318.80417 3253.02597 4318.46671 3253.50269 4318.19039 3254.01726 4317.9794 3254.56189 4317.83693 3255.12832 4317.76516 3255.70796 4317.76516 3256.29204 4317.83693 3256.87168 4317.9794 3257.43811 4318.19039 3257.98274 4318.46671 3258.49731 4318.80417 3258.97403 4319.19765 3259.40566 4319.6412 3259.78567 4320.12808 3260.10829 4320.65092 3260.36863 4321.20179 3260.56275 4321.41418 3260.60926 4321.55538 3260.6705 4321.66301 3260.78052 4321.72113 3260.92304 4321.72113 3261.07696 4321.66301 3261.21948 4321.55538 3261.3295 4321.41418 3261.39074 4321.20179 3261.43725 4320.65092 3261.63137 4320.12808 3261.89171 4319.6412 3262.21433 4319.19765 3262.59434 4318.80417 3263.02597 4318.46671 3263.50269 4318.19039 3264.01726 4317.9794 3264.56189 4317.83693 3265.12832 4317.76516 3265.70796 4317.76516 3266.29204 4317.83693 3266.87168 4317.9794 3267.43811 4318.19039 3267.98274 4318.46671 3268.49731 4318.80417 3268.97403 4319.19765 3269.40566 4319.6412 3269.78567 4320.12808 3270.10829 4320.65092 3270.36863 4321.20179 3270.56275 4321.41418 3270.60926 4321.55538 3270.6705 4321.66301 3270.78052 4321.72113 3270.92304 4321.72113 3271.07696 4321.66301 3271.21948 4321.55538 3271.3295 4321.41418 3271.39074 4321.20179 3271.43725 4320.65092 3271.63137 4320.12808 3271.89171 4319.6412 3272.21433 4319.19765 3272.59434 4318.80417 3273.02597 4318.46671 3273.50269 4318.19039 3274.01726 4317.9794 3274.56189 4317.83693 3275.12832 4317.76516 3275.70796 4317.76516 3276.29204 4317.83693 3276.87168 4317.9794 3277.43811 4318.19039 3277.98274 4318.46671 3278.49731 4318.80417 3278.97403 4319.19765 3279.40566 4319.6412 3279.78567 4320.12808 3280.10829 4320.65092 3280.36863 4321.20179 3280.56275 4321.41418 3280.60926 4321.55538 3280.6705 4321.66301 3280.78052 4321.72113 3280.92304 4321.72113 3281.07696 4321.66301 3281.21948 4321.55538 3281.3295 4321.41418 3281.39074 4321.20179 3281.43725 4320.65092 3281.63137 4320.12808 3281.89171 4319.6412 3282.21433 4319.19765 3282.59434 4318.80417 3283.02597 4318.46671 3283.50269 4318.19039 3284.01726 4317.9794 3284.56189 4317.83693 3285.12832 4317.76516 3285.70796 4317.76516 3286.29204 4317.83693 3286.87168 4317.9794 3287.43811 4318.19039 3287.98274 4318.46671 3288.49731 4318.80417 3288.97403 4319.19765 3289.40566 4319.6412 3289.78567 4320.12808 3290.10829 4320.65092 3290.36863 4321.20179 3290.56275 4321.77233 3290.6877 Z M 4194.09312 3302.7817 L 4193.91724 3302.43149 4193.58895 3301.93234 4193.20493 3301.47469 4192.77037 3301.06471 4192.29116 3300.70795 4191.77377 3300.40923 4191.67699 3300.36749 4191.54985 3300.28029 4191.46514 3300.15148 4191.43543 3300.0002 4191.46514 3299.84892 4191.54985 3299.72011 4191.67699 3299.63291 4191.77377 3299.59117 4192.29116 3299.29245 4192.77037 3298.93569 4193.20493 3298.52571 4193.58895 3298.06806 4193.91724 3297.56891 4194.18536 3297.03503 4194.3897 3296.47363 4194.52747 3295.8923 4194.59683 3295.29891 4194.59683 3294.70149 4194.52747 3294.1081 4194.3897 3293.52677 4194.18536 3292.96537 4193.91724 3292.43149 4193.58895 3291.93234 4193.20493 3291.47469 4192.77037 3291.06471 4192.29116 3290.70795 4191.77377 3290.40923 4191.67699 3290.36749 4191.54985 3290.28029 4191.46514 3290.15148 4191.43543 3290.0002 4191.46514 3289.84892 4191.54985 3289.72011 4191.67699 3289.63291 4191.77377 3289.59117 4192.29116 3289.29245 4192.77037 3288.93569 4193.20493 3288.52571 4193.58895 3288.06806 4193.91724 3287.56891 4194.18536 3287.03503 4194.3897 3286.47363 4194.52747 3285.8923 4194.59683 3285.29891 4194.59683 3284.70149 4194.52747 3284.1081 4194.3897 3283.52677 4194.18536 3282.96537 4193.91724 3282.43149 4193.58895 3281.93234 4193.20493 3281.47469 4192.77037 3281.06471 4192.29116 3280.70795 4191.77377 3280.40923 4191.67699 3280.36749 4191.54985 3280.28029 4191.46514 3280.15148 4191.43543 3280.0002 4191.46514 3279.84892 4191.54985 3279.72011 4191.67699 3279.63291 4191.77377 3279.59117 4192.29116 3279.29245 4192.77037 3278.93569 4193.20493 3278.52571 4193.58895 3278.06806 4193.91724 3277.56891 4194.18536 3277.03503 4194.3897 3276.47363 4194.52747 3275.8923 4194.59683 3275.29891 4194.59683 3274.70149 4194.52747 3274.1081 4194.3897 3273.52677 4194.18536 3272.96537 4193.91724 3272.43149 4193.58895 3271.93234 4193.20493 3271.47469 4192.77037 3271.06471 4192.29116 3270.70795 4191.77377 3270.40923 4191.67699 3270.36749 4191.54985 3270.28029 4191.46514 3270.15148 4191.43543 3270.0002 4191.46514 3269.84892 4191.54985 3269.72011 4191.67699 3269.63291 4191.77377 3269.59117 4192.29116 3269.29245 4192.77037 3268.93569 4193.20493 3268.52571 4193.58895 3268.06806 4193.91724 3267.56891 4194.18536 3267.03503 4194.3897 3266.47363 4194.52747 3265.8923 4194.59683 3265.29891 4194.59683 3264.70149 4194.52747 3264.1081 4194.3897 3263.52677 4194.18536 3262.96537 4193.91724 3262.43149 4193.58895 3261.93234 4193.20493 3261.47469 4192.77037 3261.06471 4192.29116 3260.70795 4191.77377 3260.40923 4191.67699 3260.36749 4191.54985 3260.28029 4191.46514 3260.15148 4191.43543 3260.0002 4191.46514 3259.84892 4191.54985 3259.72011 4191.67699 3259.63291 4191.77377 3259.59117 4192.29116 3259.29245 4192.77037 3258.93569 4193.20493 3258.52571 4193.58895 3258.06806 4193.91724 3257.56891 4194.18536 3257.03503 4194.3897 3256.47363 4194.52747 3255.8923 4194.59683 3255.29891 4194.59683 3254.70149 4194.52747 3254.1081 4194.3897 3253.52677 4194.18536 3252.96537 4193.91724 3252.43149 4193.58895 3251.93234 4193.20493 3251.47469 4192.77037 3251.06471 4192.29116 3250.70795 4191.77377 3250.40923 4191.2252 3250.1726 4190.65287 3250.00126 4190.06452 3249.89752 4189.45646 3249.8621 4185.54274 3249.8621 4184.93468 3249.89752 4184.34633 3250.00126 4183.774 3250.1726 4183.22543 3250.40923 4182.70804 3250.70795 4182.22883 3251.06471 4181.79427 3251.47469 4181.41025 3251.93234 4181.08196 3252.43149 4180.81384 3252.96537 4180.6095 3253.52677 4180.47173 3254.1081 4180.40237 3254.70149 4180.40237 3255.29891 4180.47173 3255.8923 4180.6095 3256.47363 4180.81384 3257.03503 4181.08196 3257.56891 4181.41025 3258.06806 4181.79427 3258.52571 4182.22883 3258.93569 4182.70804 3259.29245 4183.22543 3259.59117 4183.32221 3259.63291 4183.44935 3259.72011 4183.53406 3259.84892 4183.56377 3260.0002 4183.53406 3260.15148 4183.44935 3260.28029 4183.32221 3260.36749 4183.22543 3260.40923 4182.70804 3260.70795 4182.22883 3261.06471 4181.79427 3261.47469 4181.41025 3261.93234 4181.08196 3262.43149 4180.81384 3262.96537 4180.6095 3263.52677 4180.47173 3264.1081 4180.40237 3264.70149 4180.40237 3265.29891 4180.47173 3265.8923 4180.6095 3266.47363 4180.81384 3267.03503 4181.08196 3267.56891 4181.41025 3268.06806 4181.79427 3268.52571 4182.22883 3268.93569 4182.70804 3269.29245 4183.22543 3269.59117 4183.32221 3269.63291 4183.44935 3269.72011 4183.53406 3269.84892 4183.56377 3270.0002 4183.53406 3270.15148 4183.44935 3270.28029 4183.32221 3270.36749 4183.22543 3270.40923 4182.70804 3270.70795 4182.22883 3271.06471 4181.79427 3271.47469 4181.41025 3271.93234 4181.08196 3272.43149 4180.81384 3272.96537 4180.6095 3273.52677 4180.47173 3274.1081 4180.40237 3274.70149 4180.40237 3275.29891 4180.47173 3275.8923 4180.6095 3276.47363 4180.81384 3277.03503 4181.08196 3277.56891 4181.41025 3278.06806 4181.79427 3278.52571 4182.22883 3278.93569 4182.70804 3279.29245 4183.22543 3279.59117 4183.32221 3279.63291 4183.44935 3279.72011 4183.53406 3279.84892 4183.56377 3280.0002 4183.53406 3280.15148 4183.44935 3280.28029 4183.32221 3280.36749 4183.22543 3280.40923 4182.70804 3280.70795 4182.22883 3281.06471 4181.79427 3281.47469 4181.41025 3281.93234 4181.08196 3282.43149 4180.81384 3282.96537 4180.6095 3283.52677 4180.47173 3284.1081 4180.40237 3284.70149 4180.40237 3285.29891 4180.47173 3285.8923 4180.6095 3286.47363 4180.81384 3287.03503 4181.08196 3287.56891 4181.41025 3288.06806 4181.79427 3288.52571 4182.22883 3288.93569 4182.70804 3289.29245 4183.22543 3289.59117 4183.32221 3289.63291 4183.44935 3289.72011 4183.53406 3289.84892 4183.56377 3290.0002 4183.53406 3290.15148 4183.44935 3290.28029 4183.32221 3290.36749 4183.22543 3290.40923 4182.70804 3290.70795 4182.22883 3291.06471 4181.79427 3291.47469 4181.41025 3291.93234 4181.08196 3292.43149 4180.81384 3292.96537 4180.6095 3293.52677 4180.47173 3294.1081 4180.40237 3294.70149 4180.40237 3295.29891 4180.47173 3295.8923 4180.6095 3296.47363 4180.81384 3297.03503 4181.08196 3297.56891 4181.41025 3298.06806 4181.79427 3298.52571 4182.22883 3298.93569 4182.70804 3299.29245 4183.22543 3299.59117 4183.32221 3299.63291 4183.44935 3299.72011 4183.53406 3299.84892 4183.56377 3300.0002 4183.53406 3300.15148 4183.44935 3300.28029 4183.32221 3300.36749 4183.22543 3300.40923 4182.70804 3300.70795 4182.22883 3301.06471 4181.79427 3301.47469 4181.41025 3301.93234 4181.08196 3302.43149 4180.90608 3302.7817 4184.29685 3302.7817 4184.29685 3300.46712 4184.33433 3300.29807 4184.43973 3300.1607 4184.59332 3300.08075 4184.76631 3300.0732 4184.93468 3300.10288 4185.54274 3300.1383 4189.45646 3300.1383 4190.06452 3300.10288 4190.23289 3300.0732 4190.40588 3300.08075 4190.55947 3300.1607 4190.66487 3300.29807 4190.70235 3300.46712 4190.70235 3302.7817 4194.09312 3302.7817 Z M 4322.35391 3140.74159 L 4322.93771 3140.7236 4323.51486 3140.63401 4324.07664 3140.47417 4324.61451 3140.24651 4325.12033 3139.95448 4325.58643 3139.6025 4326.00574 3139.1959 4326.37191 3138.74087 4326.67938 3138.24428 4326.9235 3137.71367 4327.10056 3137.15709 4327.20788 3136.58296 4327.24384 3136 4327.20788 3135.41704 4327.10056 3134.84291 4326.9235 3134.28633 4326.67938 3133.75572 4326.37191 3133.25913 4326.00574 3132.8041 4325.58643 3132.3975 4325.12033 3132.04552 4324.61451 3131.75349 4324.07664 3131.52583 4323.58074 3131.38473 4323.42995 3131.30376 4323.32682 3131.16718 4323.2902 3131 4323.32682 3130.83282 4323.42995 3130.69624 4323.58074 3130.61527 4324.07664 3130.47417 4324.61451 3130.24651 4325.12033 3129.95448 4325.58643 3129.6025 4326.00574 3129.1959 4326.37191 3128.74087 4326.67938 3128.24428 4326.9235 3127.71367 4327.10056 3127.15709 4327.20788 3126.58296 4327.24384 3126 4327.20788 3125.41704 4327.10056 3124.84291 4326.9235 3124.28633 4326.67938 3123.75572 4326.37191 3123.25913 4326.00574 3122.8041 4325.58643 3122.3975 4325.12033 3122.04552 4324.61451 3121.75349 4324.07664 3121.52583 4323.58074 3121.38473 4323.42995 3121.30376 4323.32682 3121.16718 4323.2902 3121 4323.32682 3120.83282 4323.42995 3120.69624 4323.58074 3120.61527 4324.07664 3120.47417 4324.61451 3120.24651 4325.12033 3119.95448 4325.58643 3119.6025 4326.00574 3119.1959 4326.37191 3118.74087 4326.67938 3118.24428 4326.9235 3117.71367 4327.10056 3117.15709 4327.20788 3116.58296 4327.24384 3116 4327.20788 3115.41704 4327.10056 3114.84291 4326.9235 3114.28633 4326.67938 3113.75572 4326.37191 3113.25913 4326.00574 3112.8041 4325.58643 3112.3975 4325.12033 3112.04552 4324.61451 3111.75349 4324.07664 3111.52583 4323.58074 3111.38473 4323.42995 3111.30376 4323.32682 3111.16718 4323.2902 3111 4323.32682 3110.83282 4323.42995 3110.69624 4323.58074 3110.61527 4324.07664 3110.47417 4324.61451 3110.24651 4325.12033 3109.95448 4325.58643 3109.6025 4326.00574 3109.1959 4326.37191 3108.74087 4326.67938 3108.24428 4326.9235 3107.71367 4327.10056 3107.15709 4327.20788 3106.58296 4327.24384 3106 4327.20788 3105.41704 4327.10056 3104.84291 4326.9235 3104.28633 4326.67938 3103.75572 4326.37191 3103.25913 4326.00574 3102.8041 4325.58643 3102.3975 4325.12033 3102.04552 4324.61451 3101.75349 4324.07664 3101.52583 4323.58074 3101.38473 4323.42995 3101.30376 4323.32682 3101.16718 4323.2902 3101 4323.32682 3100.83282 4323.42995 3100.69624 4323.58074 3100.61527 4324.07664 3100.47417 4324.61451 3100.24651 4325.12033 3099.95448 4325.58643 3099.6025 4326.00574 3099.1959 4326.37191 3098.74087 4326.67938 3098.24428 4326.9235 3097.71367 4327.10056 3097.15709 4327.20788 3096.58296 4327.24384 3096 4327.20788 3095.41704 4327.10056 3094.84291 4326.9235 3094.28633 4326.67938 3093.75572 4326.37191 3093.25913 4326.00574 3092.8041 4325.58643 3092.3975 4325.12033 3092.04552 4324.61451 3091.75349 4324.07664 3091.52583 4323.51486 3091.36599 4322.93771 3091.2764 4322.35391 3091.25841 4321.77233 3091.3123 4321.20179 3091.43725 4320.65092 3091.63137 4320.12808 3091.89171 4319.6412 3092.21433 4319.19765 3092.59434 4318.80417 3093.02597 4318.46671 3093.50269 4318.19039 3094.01726 4317.9794 3094.56189 4317.83693 3095.12832 4317.76516 3095.70796 4317.76516 3096.29204 4317.83693 3096.87168 4317.9794 3097.43811 4318.19039 3097.98274 4318.46671 3098.49731 4318.80417 3098.97403 4319.19765 3099.40566 4319.6412 3099.78567 4320.12808 3100.10829 4320.65092 3100.36863 4321.20179 3100.56275 4321.41418 3100.60926 4321.55538 3100.6705 4321.66301 3100.78052 4321.72113 3100.92304 4321.72113 3101.07696 4321.66301 3101.21948 4321.55538 3101.3295 4321.41418 3101.39074 4321.20179 3101.43725 4320.65092 3101.63137 4320.12808 3101.89171 4319.6412 3102.21433 4319.19765 3102.59434 4318.80417 3103.02597 4318.46671 3103.50269 4318.19039 3104.01726 4317.9794 3104.56189 4317.83693 3105.12832 4317.76516 3105.70796 4317.76516 3106.29204 4317.83693 3106.87168 4317.9794 3107.43811 4318.19039 3107.98274 4318.46671 3108.49731 4318.80417 3108.97403 4319.19765 3109.40566 4319.6412 3109.78567 4320.12808 3110.10829 4320.65092 3110.36863 4321.20179 3110.56275 4321.41418 3110.60926 4321.55538 3110.6705 4321.66301 3110.78052 4321.72113 3110.92304 4321.72113 3111.07696 4321.66301 3111.21948 4321.55538 3111.3295 4321.41418 3111.39074 4321.20179 3111.43725 4320.65092 3111.63137 4320.12808 3111.89171 4319.6412 3112.21433 4319.19765 3112.59434 4318.80417 3113.02597 4318.46671 3113.50269 4318.19039 3114.01726 4317.9794 3114.56189 4317.83693 3115.12832 4317.76516 3115.70796 4317.76516 3116.29204 4317.83693 3116.87168 4317.9794 3117.43811 4318.19039 3117.98274 4318.46671 3118.49731 4318.80417 3118.97403 4319.19765 3119.40566 4319.6412 3119.78567 4320.12808 3120.10829 4320.65092 3120.36863 4321.20179 3120.56275 4321.41418 3120.60926 4321.55538 3120.6705 4321.66301 3120.78052 4321.72113 3120.92304 4321.72113 3121.07696 4321.66301 3121.21948 4321.55538 3121.3295 4321.41418 3121.39074 4321.20179 3121.43725 4320.65092 3121.63137 4320.12808 3121.89171 4319.6412 3122.21433 4319.19765 3122.59434 4318.80417 3123.02597 4318.46671 3123.50269 4318.19039 3124.01726 4317.9794 3124.56189 4317.83693 3125.12832 4317.76516 3125.70796 4317.76516 3126.29204 4317.83693 3126.87168 4317.9794 3127.43811 4318.19039 3127.98274 4318.46671 3128.49731 4318.80417 3128.97403 4319.19765 3129.40566 4319.6412 3129.78567 4320.12808 3130.10829 4320.65092 3130.36863 4321.20179 3130.56275 4321.41418 3130.60926 4321.55538 3130.6705 4321.66301 3130.78052 4321.72113 3130.92304 4321.72113 3131.07696 4321.66301 3131.21948 4321.55538 3131.3295 4321.41418 3131.39074 4321.20179 3131.43725 4320.65092 3131.63137 4320.12808 3131.89171 4319.6412 3132.21433 4319.19765 3132.59434 4318.80417 3133.02597 4318.46671 3133.50269 4318.19039 3134.01726 4317.9794 3134.56189 4317.83693 3135.12832 4317.76516 3135.70796 4317.76516 3136.29204 4317.83693 3136.87168 4317.9794 3137.43811 4318.19039 3137.98274 4318.46671 3138.49731 4318.80417 3138.97403 4319.19765 3139.40566 4319.6412 3139.78567 4320.12808 3140.10829 4320.65092 3140.36863 4321.20179 3140.56275 4321.77233 3140.6877 4322.35391 3140.74159 Z M 4340.5 3130.34988 L 4341.05625 3130.31416 4341.60337 3130.20761 4342.13237 3130.03197 4342.63456 3129.79013 4343.10171 3129.48605 4343.52613 3129.12473 4343.90087 3128.7121 4344.21977 3128.25494 4344.47758 3127.76076 4344.67009 3127.23766 4344.79412 3126.69424 4344.84764 3126.13942 4344.82978 3125.58231 4344.74082 3125.03206 4344.58222 3124.4977 4344.3566 3123.98802 4344.06765 3123.51136 4343.72012 3123.07557 4343.31971 3122.6878 4342.87301 3122.35442 4342.38734 3122.0809 4341.87068 3121.87172 4341.33152 3121.73034 4340.7787 3121.65906 4340.2213 3121.65906 4339.66848 3121.73034 4339.12932 3121.87172 4338.61266 3122.0809 4338.12699 3122.35442 4337.68029 3122.6878 4337.27988 3123.07557 4336.93235 3123.51136 4336.6434 3123.98802 4336.41778 3124.4977 4336.25918 3125.03206 4336.17022 3125.58231 4336.15236 3126.13942 4336.20588 3126.69424 4336.32991 3127.23766 4336.52242 3127.76076 4336.78023 3128.25494 4337.09913 3128.7121 4337.47387 3129.12473 4337.89829 3129.48605 4338.36544 3129.79013 4338.86763 3130.03197 4339.39663 3130.20761 4339.94375 3130.31416 4340.5 3130.34988 Z M 4340.5 3100.34988 L 4341.05625 3100.31416 4341.60337 3100.20761 4342.13237 3100.03197 4342.63456 3099.79013 4343.10171 3099.48605 4343.52613 3099.12473 4343.90087 3098.7121 4344.21977 3098.25494 4344.47758 3097.76076 4344.67009 3097.23766 4344.79412 3096.69424 4344.84764 3096.13942 4344.82978 3095.58231 4344.74082 3095.03206 4344.58222 3094.4977 4344.3566 3093.98802 4344.06765 3093.51136 4343.72012 3093.07557 4343.31971 3092.6878 4342.87301 3092.35442 4342.38734 3092.0809 4341.87068 3091.87172 4341.33152 3091.73034 4340.7787 3091.65906 4340.2213 3091.65906 4339.66848 3091.73034 4339.12932 3091.87172 4338.61266 3092.0809 4338.12699 3092.35442 4337.68029 3092.6878 4337.27988 3093.07557 4336.93235 3093.51136 4336.6434 3093.98802 4336.41778 3094.4977 4336.25918 3095.03206 4336.17022 3095.58231 4336.15236 3096.13942 4336.20588 3096.69424 4336.32991 3097.23766 4336.52242 3097.76076 4336.78023 3098.25494 4337.09913 3098.7121 4337.47387 3099.12473 4337.89829 3099.48605 4338.36544 3099.79013 4338.86763 3100.03197 4339.39663 3100.20761 4339.94375 3100.31416 4340.5 3100.34988 Z M 4340.5 3110.34988 L 4341.05625 3110.31416 4341.60337 3110.20761 4342.13237 3110.03197 4342.63456 3109.79013 4343.10171 3109.48605 4343.52613 3109.12473 4343.90087 3108.7121 4344.21977 3108.25494 4344.47758 3107.76076 4344.67009 3107.23766 4344.79412 3106.69424 4344.84764 3106.13942 4344.82978 3105.58231 4344.74082 3105.03206 4344.58222 3104.4977 4344.3566 3103.98802 4344.06765 3103.51136 4343.72012 3103.07557 4343.31971 3102.6878 4342.87301 3102.35442 4342.38734 3102.0809 4341.87068 3101.87172 4341.33152 3101.73034 4340.7787 3101.65906 4340.2213 3101.65906 4339.66848 3101.73034 4339.12932 3101.87172 4338.61266 3102.0809 4338.12699 3102.35442 4337.68029 3102.6878 4337.27988 3103.07557 4336.93235 3103.51136 4336.6434 3103.98802 4336.41778 3104.4977 4336.25918 3105.03206 4336.17022 3105.58231 4336.15236 3106.13942 4336.20588 3106.69424 4336.32991 3107.23766 4336.52242 3107.76076 4336.78023 3108.25494 4337.09913 3108.7121 4337.47387 3109.12473 4337.89829 3109.48605 4338.36544 3109.79013 4338.86763 3110.03197 4339.39663 3110.20761 4339.94375 3110.31416 4340.5 3110.34988 Z M 4340.5 3150.34988 L 4341.05625 3150.31416 4341.60337 3150.20761 4342.13237 3150.03197 4342.63456 3149.79013 4343.10171 3149.48605 4343.52613 3149.12473 4343.90087 3148.7121 4344.21977 3148.25494 4344.47758 3147.76076 4344.67009 3147.23766 4344.79412 3146.69424 4344.84764 3146.13942 4344.82978 3145.58231 4344.74082 3145.03206 4344.58222 3144.4977 4344.3566 3143.98802 4344.06765 3143.51136 4343.72012 3143.07557 4343.31971 3142.6878 4342.87301 3142.35442 4342.38734 3142.0809 4341.87068 3141.87172 4341.33152 3141.73034 4340.7787 3141.65906 4340.2213 3141.65906 4339.66848 3141.73034 4339.12932 3141.87172 4338.61266 3142.0809 4338.12699 3142.35442 4337.68029 3142.6878 4337.27988 3143.07557 4336.93235 3143.51136 4336.6434 3143.98802 4336.41778 3144.4977 4336.25918 3145.03206 4336.17022 3145.58231 4336.15236 3146.13942 4336.20588 3146.69424 4336.32991 3147.23766 4336.52242 3147.76076 4336.78023 3148.25494 4337.09913 3148.7121 4337.47387 3149.12473 4337.89829 3149.48605 4338.36544 3149.79013 4338.86763 3150.03197 4339.39663 3150.20761 4339.94375 3150.31416 4340.5 3150.34988 Z M 4340.5 3120.34988 L 4341.05625 3120.31416 4341.60337 3120.20761 4342.13237 3120.03197 4342.63456 3119.79013 4343.10171 3119.48605 4343.52613 3119.12473 4343.90087 3118.7121 4344.21977 3118.25494 4344.47758 3117.76076 4344.67009 3117.23766 4344.79412 3116.69424 4344.84764 3116.13942 4344.82978 3115.58231 4344.74082 3115.03206 4344.58222 3114.4977 4344.3566 3113.98802 4344.06765 3113.51136 4343.72012 3113.07557 4343.31971 3112.6878 4342.87301 3112.35442 4342.38734 3112.0809 4341.87068 3111.87172 4341.33152 3111.73034 4340.7787 3111.65906 4340.2213 3111.65906 4339.66848 3111.73034 4339.12932 3111.87172 4338.61266 3112.0809 4338.12699 3112.35442 4337.68029 3112.6878 4337.27988 3113.07557 4336.93235 3113.51136 4336.6434 3113.98802 4336.41778 3114.4977 4336.25918 3115.03206 4336.17022 3115.58231 4336.15236 3116.13942 4336.20588 3116.69424 4336.32991 3117.23766 4336.52242 3117.76076 4336.78023 3118.25494 4337.09913 3118.7121 4337.47387 3119.12473 4337.89829 3119.48605 4338.36544 3119.79013 4338.86763 3120.03197 4339.39663 3120.20761 4339.94375 3120.31416 4340.5 3120.34988 Z M 4340.5 3140.34988 L 4341.05625 3140.31416 4341.60337 3140.20761 4342.13237 3140.03197 4342.63456 3139.79013 4343.10171 3139.48605 4343.52613 3139.12473 4343.90087 3138.7121 4344.21977 3138.25494 4344.47758 3137.76076 4344.67009 3137.23766 4344.79412 3136.69424 4344.84764 3136.13942 4344.82978 3135.58231 4344.74082 3135.03206 4344.58222 3134.4977 4344.3566 3133.98802 4344.06765 3133.51136 4343.72012 3133.07557 4343.31971 3132.6878 4342.87301 3132.35442 4342.38734 3132.0809 4341.87068 3131.87172 4341.33152 3131.73034 4340.7787 3131.65906 4340.2213 3131.65906 4339.66848 3131.73034 4339.12932 3131.87172 4338.61266 3132.0809 4338.12699 3132.35442 4337.68029 3132.6878 4337.27988 3133.07557 4336.93235 3133.51136 4336.6434 3133.98802 4336.41778 3134.4977 4336.25918 3135.03206 4336.17022 3135.58231 4336.15236 3136.13942 4336.20588 3136.69424 4336.32991 3137.23766 4336.52242 3137.76076 4336.78023 3138.25494 4337.09913 3138.7121 4337.47387 3139.12473 4337.89829 3139.48605 4338.36544 3139.79013 4338.86763 3140.03197 4339.39663 3140.20761 4339.94375 3140.31416 4340.5 3140.34988 Z M 4199 3160.20024 L 4199.54824 3160.16431 4200.0871 3160.05712 4200.60736 3159.88052 4201.10012 3159.63752 4201.55695 3159.33228 4201.97002 3158.97002 4202.33228 3158.55695 4202.63752 3158.10012 4202.88052 3157.60736 4203.05712 3157.0871 4203.16431 3156.54824 4203.20024 3156 4203.16431 3155.45176 4203.05712 3154.9129 4202.88052 3154.39264 4202.63752 3153.89988 4202.33228 3153.44305 4201.97002 3153.02998 4201.55695 3152.66772 4201.10012 3152.36248 4200.60736 3152.11948 4200.0871 3151.94288 4199.54824 3151.83569 4199 3151.79976 4198.45176 3151.83569 4197.9129 3151.94288 4197.39264 3152.11948 4196.89988 3152.36248 4196.44305 3152.66772 4196.02998 3153.02998 4195.66772 3153.44305 4195.36248 3153.89988 4195.11948 3154.39264 4194.94288 3154.9129 4194.83569 3155.45176 4194.79976 3156 4194.83569 3156.54824 4194.94288 3157.0871 4195.11948 3157.60736 4195.36248 3158.10012 4195.66772 3158.55695 4196.02998 3158.97002 4196.44305 3159.33228 4196.89988 3159.63752 4197.39264 3159.88052 4197.9129 3160.05712 4198.45176 3160.16431 4199 3160.20024 Z M 4184.29685 3309.98433 L 4184.29685 3307.2187 4180.90608 3307.2187 4181.08196 3307.56891 4181.41025 3308.06806 4181.79427 3308.52571 4182.22883 3308.93569 4182.70804 3309.29245 4183.22543 3309.59117 4183.774 3309.8278 4184.29685 3309.98433 Z M 4190.70235 3307.2187 L 4190.70235 3309.98433 4191.2252 3309.8278 4191.77377 3309.59117 4192.29116 3309.29245 4192.77037 3308.93569 4193.20493 3308.52571 4193.58895 3308.06806 4193.91724 3307.56891 4194.09312 3307.2187 4190.70235 3307.2187 Z M 4320.47825 3083.97825 L 4320.47825 3081.71735 4320.12808 3081.89171 4319.6412 3082.21433 4319.19765 3082.59434 4318.80417 3083.02597 4318.46671 3083.50269 4318.21134 3083.97825 4320.47825 3083.97825 Z M 4320.47825 3150.28265 L 4320.47825 3148.02175 4318.21134 3148.02175 4318.46671 3148.49731 4318.80417 3148.97403 4319.19765 3149.40566 4319.6412 3149.78567 4320.12808 3150.10829 4320.47825 3150.28265 Z M 4320.47825 3143.97825 L 4320.47825 3141.71735 4320.12808 3141.89171 4319.6412 3142.21433 4319.19765 3142.59434 4318.80417 3143.02597 4318.46671 3143.50269 4318.21134 3143.97825 4320.47825 3143.97825 Z M 4320.12808 3090.10829 L 4320.47825 3090.28265 4320.47825 3088.02175 4318.21134 3088.02175 4318.46671 3088.49731 4318.80417 3088.97403 4319.19765 3089.40566 4319.6412 3089.78567 4320.12808 3090.10829 Z M 4326.78176 3143.97825 L 4326.67938 3143.75572 4326.37191 3143.25913 4326.00574 3142.8041 4325.58643 3142.3975 4325.12033 3142.04552 4324.61451 3141.75349 4324.52175 3141.71423 4324.52175 3143.97825 4326.78176 3143.97825 Z M 4324.52175 3081.71423 L 4324.52175 3083.97825 4326.78176 3083.97825 4326.67938 3083.75572 4326.37191 3083.25913 4326.00574 3082.8041 4325.58643 3082.3975 4325.12033 3082.04552 4324.61451 3081.75349 4324.52175 3081.71423 Z M 4324.52175 3088.02175 L 4324.52175 3090.28577 4324.61451 3090.24651 4325.12033 3089.95448 4325.58643 3089.6025 4326.00574 3089.1959 4326.37191 3088.74087 4326.67938 3088.24428 4326.78176 3088.02175 4324.52175 3088.02175 Z M 4324.52175 3148.02175 L 4324.52175 3150.28577 4324.61451 3150.24651 4325.12033 3149.95448 4325.58643 3149.6025 4326.00574 3149.1959 4326.37191 3148.74087 4326.67938 3148.24428 4326.78176 3148.02175 4324.52175 3148.02175 Z M 4342.3248 3152.05558 L 4342.3248 3154.1752 4344.43946 3154.1752 4344.3566 3153.98802 4344.06765 3153.51136 4343.72012 3153.07557 4343.31971 3152.6878 4342.87301 3152.35442 4342.38734 3152.0809 4342.3248 3152.05558 Z M 4338.6752 3154.1752 L 4338.6752 3152.05558 4338.61266 3152.0809 4338.12699 3152.35442 4337.68029 3152.6878 4337.27988 3153.07557 4336.93235 3153.51136 4336.6434 3153.98802 4336.56054 3154.1752 4338.6752 3154.1752 Z M 4338.6752 3159.9393 L 4338.6752 3157.8248 4336.55583 3157.8248 4336.78023 3158.25494 4337.09913 3158.7121 4337.47387 3159.12473 4337.89829 3159.48605 4338.36544 3159.79013 4338.6752 3159.9393 Z M 4342.3248 3159.9393 L 4342.63456 3159.79013 4343.10171 3159.48605 4343.52613 3159.12473 4343.90087 3158.7121 4344.21977 3158.25494 4344.44417 3157.8248 4342.3248 3157.8248 4342.3248 3159.9393 Z M 4200.75 3167.75 L 4200.75 3169.81018 4201.10012 3169.63752 4201.55695 3169.33228 4201.97002 3168.97002 4202.33228 3168.55695 4202.63752 3168.10012 4202.81018 3167.75 4200.75 3167.75 Z M 4197.25 3169.81018 L 4197.25 3167.75 4195.18982 3167.75 4195.36248 3168.10012 4195.66772 3168.55695 4196.02998 3168.97002 4196.44305 3169.33228 4196.89988 3169.63752 4197.25 3169.81018 Z M 4197.25 3164.25 L 4197.25 3162.18982 4196.89988 3162.36248 4196.44305 3162.66772 4196.02998 3163.02998 4195.66772 3163.44305 4195.36248 3163.89988 4195.18982 3164.25 4197.25 3164.25 Z M 4200.75 3162.18982 L 4200.75 3164.25 4202.81018 3164.25 4202.63752 3163.89988 4202.33228 3163.44305 4201.97002 3163.02998 4201.55695 3162.66772 4201.10012 3162.36248 4200.75 3162.18982 Z " stroke-width="0" layerid="2" attachedcopperid="gge1401" c_shapetype="line" id="gge1401_0" class=""></path><polyline points="4217.5 3266 4187 3235.5 4187 3148 4199 3136" stroke-width="2.3622"  stroke-linecap="round" fill="none" layerid="2" net="+5V" id="gge1428" locked="0" /></svg>